<svg width="20" height="20" viewBox="0 0 20 20" fill="none" xmlns="http://www.w3.org/2000/svg">
<path fill-rule="evenodd" clip-rule="evenodd" d="M18.6733 1.32675C19.406 2.05949 19.406 3.2475 18.6733 3.98024L3.98025 18.6733C3.24751 19.406 2.05949 19.406 1.32675 18.6733C0.594009 17.9405 0.594009 16.7525 1.32675 16.0198L16.0198 1.32675C16.7525 0.594005 17.9405 0.594006 18.6733 1.32675Z" fill="white" fill-opacity="0.69"/>
<path fill-rule="evenodd" clip-rule="evenodd" d="M18.6732 18.6733C17.9405 19.406 16.7525 19.406 16.0198 18.6733L1.32675 3.98024C0.594005 3.2475 0.594005 2.05949 1.32675 1.32675C2.05949 0.594006 3.2475 0.594004 3.98024 1.32675L18.6732 16.0198C19.406 16.7525 19.406 17.9405 18.6732 18.6733Z" fill="white" fill-opacity="0.69"/>
</svg>
