<svg width="35" height="35" viewBox="0 0 35 35" fill="none" xmlns="http://www.w3.org/2000/svg">
<path d="M13.125 32.0833H21.875C29.1666 32.0833 32.0833 29.1667 32.0833 21.875V13.125C32.0833 5.83332 29.1666 2.91666 21.875 2.91666H13.125C5.83329 2.91666 2.91663 5.83332 2.91663 13.125V21.875C2.91663 29.1667 5.83329 32.0833 13.125 32.0833Z" stroke="url(#paint0_linear_73_1486)" stroke-width="1.5" stroke-linecap="round" stroke-linejoin="round"/>
<path d="M13.125 14.5833C14.7359 14.5833 16.0417 13.2775 16.0417 11.6667C16.0417 10.0558 14.7359 8.75 13.125 8.75C11.5142 8.75 10.2084 10.0558 10.2084 11.6667C10.2084 13.2775 11.5142 14.5833 13.125 14.5833Z" stroke="url(#paint1_linear_73_1486)" stroke-width="1.5" stroke-linecap="round" stroke-linejoin="round"/>
<path d="M3.8938 27.6354L11.0834 22.8083C12.2355 22.0354 13.898 22.1229 14.9334 23.0125L15.4146 23.4354C16.5521 24.4125 18.3896 24.4125 19.5271 23.4354L25.5938 18.2292C26.7313 17.2521 28.5688 17.2521 29.7063 18.2292L32.0834 20.2708" stroke="url(#paint2_linear_73_1486)" stroke-width="1.5" stroke-linecap="round" stroke-linejoin="round"/>
<defs>
<linearGradient id="paint0_linear_73_1486" x1="17.5" y1="2.91666" x2="17.5" y2="32.0833" gradientUnits="userSpaceOnUse">
<stop stop-color="#B563FF"/>
<stop offset="0.520833" stop-color="#324DAD"/>
<stop offset="1" stop-color="#324DAD"/>
</linearGradient>
<linearGradient id="paint1_linear_73_1486" x1="13.125" y1="8.75" x2="13.125" y2="14.5833" gradientUnits="userSpaceOnUse">
<stop stop-color="#B563FF"/>
<stop offset="0.520833" stop-color="#324DAD"/>
<stop offset="1" stop-color="#324DAD"/>
</linearGradient>
<linearGradient id="paint2_linear_73_1486" x1="17.9886" y1="17.4964" x2="17.9886" y2="27.6354" gradientUnits="userSpaceOnUse">
<stop stop-color="#B563FF"/>
<stop offset="0.520833" stop-color="#324DAD"/>
<stop offset="1" stop-color="#324DAD"/>
</linearGradient>
</defs>
</svg>
