<svg width="34" height="33" viewBox="0 0 34 33" fill="none" xmlns="http://www.w3.org/2000/svg">
<path fill-rule="evenodd" clip-rule="evenodd" d="M32.5489 9.62095L31.4641 7.87905C30.5464 6.40513 28.5125 5.89667 26.9175 6.74238V6.74238C26.1583 7.15625 25.2523 7.27367 24.3994 7.06875C23.5465 6.86383 22.8167 6.35339 22.3709 5.65C22.0842 5.20291 21.9301 4.69368 21.9243 4.17381V4.17381C21.9501 3.34032 21.6103 2.53263 20.9822 1.93473C20.3541 1.33684 19.4912 0.999657 18.5901 1H16.4046C15.5218 0.999991 14.6753 1.32551 14.0526 1.90453C13.4298 2.48356 13.0821 3.26834 13.0864 4.08524V4.08524C13.0602 5.77185 11.5751 7.12636 9.75221 7.12619C9.1904 7.12079 8.64008 6.97821 8.15692 6.71286V6.71286C6.56191 5.86714 4.52809 6.37561 3.61035 7.84952L2.44579 9.62095C1.52916 11.093 2.07117 12.9738 3.65821 13.8281V13.8281C4.68981 14.3792 5.32531 15.3977 5.32531 16.5C5.32531 17.6023 4.68981 18.6208 3.65821 19.1719V19.1719C2.07319 20.0204 1.53058 21.8967 2.44579 23.3643V23.3643L3.54654 25.121C3.97654 25.8389 4.698 26.3687 5.55129 26.5931C6.40457 26.8175 7.31932 26.718 8.09311 26.3167V26.3167C8.8538 25.9059 9.76027 25.7934 10.611 26.0041C11.4618 26.2148 12.1864 26.7312 12.6237 27.4386C12.9105 27.8857 13.0646 28.3949 13.0704 28.9148V28.9148C13.0704 30.6187 14.5632 32 16.4046 32H18.5901C20.4253 32 21.9155 30.6277 21.9243 28.9295V28.9295C21.92 28.1101 22.2699 27.323 22.8961 26.7436C23.5223 26.1641 24.3728 25.8403 25.2584 25.8443C25.8189 25.8582 26.3669 26.0002 26.8537 26.2576V26.2576C28.4446 27.1058 30.4771 26.6043 31.4003 25.1357V25.1357L32.5489 23.3643C32.9935 22.6581 33.1155 21.8171 32.888 21.0275C32.6604 20.2378 32.102 19.5647 31.3365 19.1571V19.1571C30.5709 18.7496 30.0126 18.0765 29.785 17.2868C29.5574 16.4972 29.6795 15.6561 30.1241 14.95C30.4132 14.4829 30.8317 14.0956 31.3365 13.8281V13.8281C32.914 12.9743 33.4547 11.1045 32.5489 9.63571V9.63571V9.62095Z" stroke="url(#paint0_linear_88_645)" stroke-width="2" stroke-linecap="round" stroke-linejoin="round"/>
<ellipse cx="17.5053" cy="16.5" rx="4.59443" ry="4.25143" stroke="#2E559F" stroke-width="2" stroke-linecap="round" stroke-linejoin="round"/>
<defs>
<linearGradient id="paint0_linear_88_645" x1="17.5" y1="1" x2="17.5" y2="32" gradientUnits="userSpaceOnUse">
<stop stop-color="#B563FF"/>
<stop offset="0.479167" stop-color="#324DAD" stop-opacity="0.520833"/>
<stop offset="1" stop-color="#268EA5"/>
</linearGradient>
</defs>
</svg>
